# xmcd CD database file
#
# Track frame offsets:
#	150
#	23935
#	40884
#	60869
#	85652
#	109376
#	129686
#	149375
#	168722
#	182879
#	201539
#	221305
#	235657
#	263060
#	278050
#	293904
#
# Disc length: 4124 seconds
#
# Revision: 0
# Processed by: cddbd v1.5.1PL0 Copyright (c) Steve Scherf et al.
# Submitted via: CDex 1.51
#
DISCID=f0101a10
DTITLE=Joe Arroyo Y La Verdad - Echao Pa' Lante
DYEAR=2004
DGENRE=Salsa
TTITLE0=Son Apretao
TTITLE1=Somos Seres
TTITLE2=Enhorabuena
TTITLE3=Mary
TTITLE4=La Vuelta
TTITLE5=Yamulemau
TTITLE6=El Maletero
TTITLE7=Pan De Arroz
TTITLE8=El Coquero
TTITLE9=Echao Pa'Lante
TTITLE10=Tumbatecho
TTITLE11=Ban Ban
TTITLE12=Musa Original
TTITLE13=El Barbero
TTITLE14=De Clavel
TTITLE15=Rosa Angelina
EXTD=YEAR: 2004
EXTT0=
EXTT1=
EXTT2=
EXTT3=
EXTT4=
EXTT5=
EXTT6=
EXTT7=
EXTT8=
EXTT9=
EXTT10=
EXTT11=
EXTT12=
EXTT13=
EXTT14=
EXTT15=
PLAYORDER=
